# xmcd
#
# Track frame offsets:
#	150
#	30900
#	55588
#	72617
#	101196
#	150899
#	170305
#	227282
#
# Disc length: 3089 seconds
#
# Revision: 1
# Processed by: cddbd v1.5.2PL0 Copyright (c) Steve Scherf et al.
# Submitted via: audiograbber 1.83.01
#
DISCID=520c0f08
DTITLE=Homeless Bernie's Boogie Nirvana - Roadhawk Blues
DYEAR=2012
DGENRE=Blues
TTITLE0=Roadhawk Blues
TTITLE1=High Cost Of Living
TTITLE2=Let's Work Together
TTITLE3=Talkin' Bout My Future
TTITLE4=Who Do You Love
TTITLE5=Will My Time Never Come
TTITLE6=I Wish You Would
TTITLE7=Roadhawk's Lullaby
EXTD=
EXTT0=
EXTT1=
EXTT2=
EXTT3=
EXTT4=
EXTT5=
EXTT6=
EXTT7=
PLAYORDER=
